<svg t="1642996613433" class="icon" viewBox="0 0 1024 1024" version="1.1" xmlns="http://www.w3.org/2000/svg" p-id="3878" width="200" height="200"><path d="M800.85 710.27c-17.64 0-31.94-14.3-31.94-31.94s14.3-31.94 31.94-31.94 31.94 14.3 31.94 31.94c1.09 16.55-11.43 30.85-27.98 31.94-1.32 0.09-2.64 0.09-3.96 0zM219.51 543.69c-17.64 0-31.94-14.3-31.94-31.94s14.3-31.94 31.94-31.94H551.7c17.64 0 31.94 14.3 31.94 31.94s-14.3 31.94-31.94 31.94H219.51z m-83.05-124.57c-16.55 1.09-30.85-11.43-31.94-27.98-0.09-1.32-0.09-2.65 0-3.96-1-16.64 11.68-30.94 28.32-31.94 1.21-0.07 2.42-0.07 3.62 0H883.9c16.64-1 30.94 11.68 31.94 28.32 0.07 1.21 0.07 2.42 0 3.62 1.09 16.54-11.43 30.85-27.98 31.94-1.32 0.09-2.64 0.09-3.96 0H136.46z m41.52 415.72c-62.7 1.07-114.4-48.9-115.47-111.6-0.02-1.29-0.02-2.58 0-3.87V304.13c-1.07-62.7 48.9-114.4 111.6-115.47 1.29-0.02 2.58-0.02 3.87 0h664.39c62.7-1.42 114.67 48.25 116.1 110.95 0.03 1.51 0.04 3.01 0.01 4.52v415.24c1.07 62.7-48.9 114.4-111.6 115.47-1.29 0.02-2.58 0.02-3.87 0H177.98z m0-581.5c-26.43-1.2-48.83 19.26-50.03 45.7-0.08 1.7-0.06 3.39 0.04 5.09v415.24c-1.64 26.41 18.44 49.15 44.85 50.79 1.98 0.12 3.96 0.12 5.93 0h664.39c13.19 0.08 25.9-4.96 35.46-14.06a50.26 50.26 0 0 0 14.05-36.73V304.13a50.34 50.34 0 0 0-14.05-36.73 50.963 50.963 0 0 0-36.73-14.06H177.98z" p-id="3879"></path></svg>